# Blender 4.3.0
# www.blender.org
o Arch
v 0.500000 0.000000 -0.500000
v 0.500000 1.000000 -0.500000
v 0.500000 0.000000 0.500000
v 0.500000 1.000000 0.500000
v -0.500000 0.000000 -0.500000
v -0.500000 1.000000 -0.500000
v -0.500000 0.000000 0.500000
v -0.500000 1.000000 0.500000
v 0.250000 0.500000 0.500000
v 0.230970 0.595671 0.500000
v 0.095671 0.730970 0.500000
v -0.095671 0.730970 0.500000
v -0.176777 0.676777 0.500000
v 0.000000 0.750000 0.500000
v 0.176777 0.676777 0.500000
v -0.250000 0.500000 0.500000
v -0.230970 0.595671 0.500000
v 0.176777 0.676777 -0.500000
v 0.095671 0.730970 -0.500000
v -0.095671 0.730970 -0.500000
v 0.000000 0.750000 -0.500000
v -0.250000 0.500000 -0.500000
v -0.230970 0.595671 -0.500000
v -0.176777 0.676777 -0.500000
v 0.250000 0.500000 -0.500000
v 0.230970 0.595671 -0.500000
v -0.250000 0.250000 0.500000
v 0.250000 0.000000 0.500000
v -0.250000 0.000000 0.500000
v -0.250000 0.250000 -0.500000
v 0.250000 0.250000 -0.500000
v 0.250000 0.000000 -0.500000
v -0.250000 0.000000 -0.500000
vn 1.0000 -0.0000 -0.0000
vn -0.0000 -0.0000 1.0000
vn -1.0000 -0.0000 -0.0000
vn -0.0000 -0.0000 -1.0000
vn -0.0000 -1.0000 -0.0000
vn -0.0000 1.0000 -0.0000
vn 0.1951 -0.9808 -0.0000
vn 0.5556 -0.8315 -0.0000
vn 0.8315 -0.5556 -0.0000
vn 0.9808 -0.1951 -0.0000
vn -0.9808 -0.1951 -0.0000
vn -0.8315 -0.5556 -0.0000
vn -0.5556 -0.8315 -0.0000
vn -0.1951 -0.9808 -0.0000
vt 0.375000 0.000000
vt 0.625000 0.000000
vt 0.625000 0.250000
vt 0.375000 0.250000
vt 0.523918 0.432742
vt 0.544194 0.419194
vt 0.625000 0.500000
vt 0.375000 0.500000
vt 0.437500 0.437500
vt 0.500000 0.437500
vt 0.375000 0.437500
vt 0.557742 0.398918
vt 0.562500 0.375000
vt 0.557742 0.351082
vt 0.544194 0.330806
vt 0.523918 0.317258
vt 0.500000 0.312500
vt 0.375000 0.312500
vt 0.625000 0.750000
vt 0.375000 0.750000
vt 0.437500 0.812500
vt 0.625000 1.000000
vt 0.375000 1.000000
vt 0.437500 0.937500
vt 0.500000 0.937500
vt 0.523918 0.932742
vt 0.544194 0.919194
vt 0.557742 0.898918
vt 0.562500 0.875000
vt 0.557742 0.851082
vt 0.544194 0.830806
vt 0.523918 0.817258
vt 0.500000 0.812500
vt 0.375000 0.937500
vt 0.375000 0.812500
vt 0.312500 0.750000
vt 0.312500 0.500000
vt 0.125000 0.750000
vt 0.125000 0.500000
vt 0.187500 0.500000
vt 0.187500 0.750000
vt 0.875000 0.500000
vt 0.875000 0.750000
vt 1.000000 0.583333
vt 0.937500 0.583333
vt 0.937500 0.916667
vt 1.000000 0.916667
vt 0.875000 0.583333
vt 0.875000 0.916667
vt 0.812500 0.583333
vt 0.812500 0.916667
vt 0.750000 0.583333
vt 0.750000 0.916667
vt 0.250000 0.583333
vt 0.187500 0.583333
vt 0.187500 0.916667
vt 0.250000 0.916667
vt 0.125000 0.583333
vt 0.125000 0.916667
vt 0.062500 0.583333
vt 0.062500 0.916667
vt 0.000000 0.583333
vt 0.000000 0.916667
vt 0.375000 0.208333
vt 0.625000 0.208333
vt 0.625000 0.041667
vt 0.500000 0.041667
vt 0.375000 0.041667
vt 0.500000 0.708333
vt 0.625000 0.708333
vt 0.625000 0.541667
vt 0.500000 0.541667
vt 0.375000 0.541667
vt 0.375000 0.708333
s 0
f 1/1/1 2/2/1 4/3/1 3/4/1
f 17/5/2 13/6/2 8/7/2 7/8/2 27/9/2 16/10/2
f 27/9/2 7/8/2 29/11/2
f 3/4/2 4/3/2 8/7/2 13/6/2 12/12/2 14/13/2 11/14/2 15/15/2 10/16/2 9/17/2 28/18/2
f 7/8/3 8/7/3 6/19/3 5/20/3
f 30/21/4 5/20/4 6/19/4 2/22/4 1/23/4 31/24/4 25/25/4 26/26/4 18/27/4 19/28/4 21/29/4 20/30/4 24/31/4 23/32/4 22/33/4
f 1/23/4 32/34/4 31/24/4
f 33/35/4 5/20/4 30/21/4
f 7/8/5 5/20/5 33/36/5 29/37/5
f 1/38/5 3/39/5 28/40/5 32/41/5
f 8/7/6 4/42/6 2/43/6 6/19/6
f 14/44/7 12/45/7 20/46/7 21/47/7
f 12/45/8 13/48/8 24/49/8 20/46/8
f 17/50/9 23/51/9 24/49/9 13/48/9
f 23/51/10 17/50/10 16/52/10 22/53/10
f 9/54/11 10/55/11 26/56/11 25/57/11
f 10/55/12 15/58/12 18/59/12 26/56/12
f 15/58/13 11/60/13 19/61/13 18/59/13
f 11/60/14 14/62/14 21/63/14 19/61/14
f 28/64/3 9/65/3 25/66/3 31/67/3 32/68/3
f 30/69/1 22/70/1 16/71/1 27/72/1 29/73/1 33/74/1
